<?xml version="1.0" encoding="UTF-8"?><svg id="Layer_1" xmlns="http://www.w3.org/2000/svg" viewBox="0 0 93.27 108.24"><defs><style>.cls-1{fill:#e21833;fill-rule:evenodd;stroke-width:0px;}</style></defs><path class="cls-1" d="m2.99,5.2c0-.73.23-1.33.52-1.72.29-.39.58-.49.79-.49h67.22c.2,0,.49.1.79.49.29.39.52.99.52,1.72v7.27h2.99v-7.27c0-1.32-.4-2.57-1.12-3.52-.72-.95-1.83-1.68-3.17-1.68H4.3C2.95,0,1.84.73,1.12,1.68c-.72.95-1.12,2.2-1.12,3.52v59.31c0,1.32.4,2.57,1.12,3.52.72.96,1.83,1.68,3.17,1.68h49.07v-2.99h-18.99c.02-.13.04-.25.04-.39v-1.99c0-1.1-.9-2-2-2h-7.97c-1.1,0-2,.9-2,2v1.99c0,.13.01.26.04.39H4.3c-.2,0-.49-.1-.79-.49-.29-.39-.52-.99-.52-1.72V5.2Zm57.37,39.19c-1.1,0-2,.9-2,2v35.91h7.98v25.94h18.95v-25.94h7.98v-35.91c0-1.1-.9-2-2-2h-30.92Zm8.97,37.91v22.94h12.97v-22.94h-12.97Zm15.96-2.99h5.35v-29.92c0-1.1-.9-2-2-2h-25.65c-1.1,0-2,.9-2,2v29.92h24.3Zm-8.98-38.91c6.61,0,11.97-5.36,11.97-11.97s-5.36-11.97-11.97-11.97-11.97,5.36-11.97,11.97,5.36,11.97,11.97,11.97Zm0-2.99c4.96,0,8.98-4.02,8.98-8.98s-4.02-8.98-8.98-8.98-8.98,4.02-8.98,8.98,4.02,8.98,8.98,8.98Z"/></svg>