<?xml version="1.0" encoding="UTF-8"?><svg id="Layer_1" xmlns="http://www.w3.org/2000/svg" viewBox="0 0 195 195"><defs><style>.cls-1,.cls-2{fill:#e21833;stroke-width:0px;}.cls-2{fill:#e21833;fill-rule:evenodd;}</style></defs><path class="cls-2" d="m97.5,7.62c49.4,0,89.49,39.85,89.88,89.16,0,.5,0,1,0,1.5-.2,24.03-9.83,45.8-25.37,61.82-.31.32-.63.65-.95.96s-.64.64-.96.95c-16.03,15.56-37.84,25.19-61.9,25.37-.44,0-.88,0-1.32,0-49.35-.34-89.25-40.45-89.25-89.88,0-49.64,40.24-89.88,89.88-89.88Zm-54.17,8.81C59.37,5.72,78.22,0,97.5,0c25.85.03,50.63,10.31,68.91,28.59,18.28,18.28,28.56,43.06,28.59,68.91,0,19.28-5.72,38.13-16.43,54.17-10.71,16.03-25.94,28.53-43.76,35.91-17.82,7.38-37.42,9.31-56.33,5.55-18.91-3.76-36.29-13.05-49.92-26.68-13.64-13.64-22.92-31.01-26.68-49.92C-1.89,97.61.04,78,7.42,60.19c7.38-17.82,19.88-33.04,35.91-43.76Z"/><path class="cls-1" d="m163.12,136.51H31.76c-.34,0-.66-.13-.89-.37-.24-.24-.37-.56-.37-.89v-50.7c0-.26.07-.51.22-.72.14-.21.35-.38.59-.47.24-.09.5-.11.75-.05s.48.19.65.38l9.28,10.31v-16.65c0-7.62,33.1-10.37,55.3-10.37s55.27,2.76,55.32,10.34v17l9.57-10.66c.17-.19.4-.32.65-.38.25-.06.51-.04.75.05.24.09.44.26.59.47.14.21.22.46.22.72v50.73c0,.34-.13.66-.37.89-.24.24-.56.37-.89.37Zm-130.09-2.53h128.82v-46.13l-9.58,10.66c-.17.2-.4.33-.66.39-.25.06-.52.04-.76-.06-.24-.1-.45-.27-.59-.49-.14-.22-.21-.48-.2-.74v-20.26c0-2.74-18.14-7.83-52.77-7.83s-52.74,5.09-52.76,7.82v19.97c0,.26-.08.51-.22.72-.15.21-.35.37-.59.46-.24.09-.5.11-.75.05-.25-.06-.47-.2-.64-.39l-9.29-10.3v46.13Z"/><path class="cls-1" d="m105.77,135.25h-2.54v-22.99c-.08-1.52-.74-2.96-1.84-4-1.1-1.05-2.57-1.64-4.09-1.64s-2.99.59-4.09,1.64c-1.1,1.05-1.76,2.48-1.84,4v22.99h-2.54v-22.99c.09-2.19,1.03-4.25,2.61-5.77,1.58-1.51,3.68-2.36,5.87-2.36s4.29.85,5.87,2.36c1.58,1.51,2.51,3.58,2.61,5.77v22.99Z"/><path class="cls-1" d="m85.63,135.25h-2.53v-18.77c-.05-.73-.38-1.41-.92-1.91-.54-.5-1.24-.77-1.97-.77s-1.44.28-1.97.77c-.54.5-.86,1.18-.92,1.91v18.77h-2.53v-18.77c.07-1.39.68-2.69,1.68-3.65,1.01-.96,2.34-1.49,3.73-1.49s2.72.53,3.73,1.49c1.01.96,1.61,2.26,1.68,3.65v18.77Z"/><path class="cls-1" d="m119.79,135.25h-2.48v-18.77c-.05-.73-.38-1.41-.92-1.91-.54-.5-1.24-.77-1.97-.77s-1.44.28-1.97.77c-.54.5-.86,1.18-.92,1.91v18.77h-2.57v-18.77c.07-1.39.68-2.69,1.68-3.65,1.01-.96,2.34-1.49,3.73-1.49s2.72.53,3.73,1.49c1.01.96,1.61,2.26,1.68,3.65v18.77Z"/><path class="cls-1" d="m68.16,135.25h-2.54v-11.21l-34.8-38.63,1.89-1.71,35.45,39.37v12.19Z"/><path class="cls-1" d="m129.26,135.25h-2.54v-12.19l35.45-39.37,1.89,1.71-34.79,38.63v11.21Z"/><path class="cls-1" d="m66.88,125.79H31.79v2.54h35.08v-2.54Z"/><path class="cls-1" d="m63.53,118.6h-31.73v2.54h31.73v-2.54Z"/><path class="cls-1" d="m57.02,111.41h-25.23v2.54h25.23v-2.54Z"/><path class="cls-1" d="m50.61,104.22h-18.81v2.54h18.81v-2.54Z"/><path class="cls-1" d="m43.87,97.04h-12.08v2.54h12.08v-2.54Z"/><path class="cls-1" d="m163.21,125.79h-35.08v2.54h35.08v-2.54Z"/><path class="cls-1" d="m163.21,118.6h-31.73v2.54h31.73v-2.54Z"/><path class="cls-1" d="m163.21,111.41h-25.23v2.54h25.23v-2.54Z"/><path class="cls-1" d="m163.21,104.22h-18.81v2.54h18.81v-2.54Z"/><path class="cls-1" d="m163.21,97.04h-12.1v2.54h12.1v-2.54Z"/><path class="cls-1" d="m43.4,85.86h-.21c-.3-.05-.57-.2-.76-.43-.19-.23-.3-.52-.31-.82,0-6.96,37.2-9.14,55.19-9.14s55.15,2.25,55.18,9.14c0,.17-.03.33-.09.49-.06.15-.16.29-.27.41-.12.12-.26.21-.41.27-.15.06-.32.09-.49.09-.17,0-.33-.03-.48-.09-.15-.06-.29-.15-.41-.27-.12-.12-.21-.25-.28-.41-.06-.15-.1-.32-.1-.48-1.02-2.67-23.58-6.7-52.65-6.7s-51.61,4.01-52.65,6.72c.02.12.02.23,0,.35-.09.26-.26.49-.49.64-.23.16-.5.24-.78.22Z"/><path class="cls-1" d="m48.75,90.43c-.28,0-.56-.1-.78-.27-.22-.17-.38-.42-.45-.69-.08-.33-.02-.67.15-.95.17-.29.45-.49.78-.57,9.52-2.35,30.97-4.2,48.84-4.2s39.02,1.83,48.61,4.16c.16.04.32.11.45.21.13.1.25.22.34.36.09.14.15.3.17.46.03.16.02.33-.02.49-.04.16-.11.31-.21.45-.1.13-.22.25-.36.34s-.3.15-.46.17c-.16.03-.33.02-.49-.02-9.43-2.29-30.47-4.08-48.02-4.08s-38.88,1.81-48.23,4.13c-.1.02-.2.02-.3.02Z"/><path class="cls-1" d="m139.56,97.23h-.17c-7.53-.99-18.45-1.84-29.22-2.29-.34-.02-.65-.16-.88-.41-.23-.25-.35-.58-.34-.91.02-.33.17-.65.41-.87.24-.23.57-.35.9-.35,10.85.46,21.86,1.31,29.46,2.3.33.05.63.23.84.49.2.27.3.6.26.94-.04.3-.2.58-.43.78-.23.2-.53.31-.84.31Z"/><path class="cls-1" d="m55.16,97.23c-.17.01-.33-.01-.49-.06-.16-.05-.3-.14-.43-.25-.25-.22-.41-.53-.43-.87-.01-.17.01-.33.06-.49.05-.16.14-.3.25-.43.11-.13.24-.23.39-.3.15-.07.31-.12.48-.13,7.89-1.02,19.27-1.9,30.47-2.33.31.03.6.18.81.42.21.23.33.54.33.85s-.12.62-.33.85c-.21.23-.5.38-.81.42-11.12.43-22.41,1.29-30.22,2.32h-.08Z"/><path class="cls-1" d="m132.93,104.6h-.11c-2.68-.21-5.53-.41-8.41-.58-.17-.01-.33-.05-.48-.12-.15-.07-.28-.17-.39-.3-.11-.12-.19-.27-.25-.43-.05-.16-.08-.32-.07-.49,0-.17.04-.33.11-.49s.17-.29.3-.4c.13-.11.27-.2.43-.25.16-.05.33-.07.5-.05,2.89.17,5.76.36,8.45.58.34.03.65.19.87.44.22.26.33.59.3.93-.03.32-.17.61-.41.83-.24.21-.54.33-.86.33Z"/><path class="cls-1" d="m61.84,104.6c-.32-.02-.61-.15-.84-.38-.22-.23-.35-.53-.37-.84-.01-.32.09-.63.29-.87.2-.24.49-.4.8-.45,2.77-.21,5.7-.41,8.67-.59.17-.02.34,0,.5.04.16.05.31.13.44.25.13.11.23.25.3.41.07.15.1.32.1.49.01.17-.01.33-.07.49-.05.16-.14.3-.25.43-.11.12-.24.23-.39.3-.15.07-.31.12-.48.12-2.96.18-5.87.38-8.62.59l-.09.02Z"/><path class="cls-1" d="m82.28,53.88h-2.54v14.79h2.54v-14.79Z"/><path class="cls-1" d="m114.85,53.88h-2.54v14.79h2.54v-14.79Z"/><path class="cls-1" d="m128.53,62.58c-.11.01-.22.01-.33,0l-14.96-4.16c-.27-.07-.5-.23-.67-.45-.17-.22-.26-.49-.26-.77v-10.88c0-.25.08-.5.22-.7.14-.21.34-.37.57-.47.23-.1.49-.12.74-.07.25.05.47.17.65.34l15.01,14.94c.19.18.32.42.38.67.05.26.02.53-.08.77-.1.24-.28.44-.51.58-.22.14-.49.2-.75.18Zm-13.71-6.4l9.37,2.61-9.37-9.37v6.76Z"/><path class="cls-1" d="m81,62.58c-.17,0-.33-.04-.49-.11-.23-.1-.43-.26-.57-.47-.14-.21-.21-.45-.21-.7v-10.82c0-.28.09-.55.26-.77.17-.22.4-.38.67-.46l14.94-4.14c.28-.1.59-.1.87,0,.28.11.51.31.65.57.13.24.19.52.15.79-.04.27-.16.53-.35.73l-14.96,14.95c-.12.14-.27.25-.44.32-.17.07-.35.11-.53.11Zm1.26-11.14v6.76l9.38-9.34-9.38,2.57Z"/><path class="cls-1" d="m97.5,102.77c-.34,0-.66-.13-.89-.37-.24-.24-.37-.56-.37-.89v-2.19c0-.34.13-.66.37-.89.24-.24.56-.37.89-.37s.66.13.89.37.37.56.37.89v2.19c0,.33-.13.66-.37.89-.24.24-.56.37-.89.37Z"/><path class="cls-1" d="m80.21,110.05c-.34,0-.66-.14-.89-.38-.24-.24-.37-.56-.37-.9v-2.19c.03-.31.18-.6.42-.81.23-.21.54-.33.85-.33s.62.12.85.33c.23.21.38.5.42.81v2.19c0,.17-.03.33-.1.49-.06.15-.16.3-.28.42-.12.12-.26.21-.42.28-.16.06-.32.1-.49.1Z"/><path class="cls-1" d="m114.38,110.05c-.34,0-.66-.14-.9-.38-.24-.24-.38-.56-.38-.9v-2.19c.03-.31.18-.6.42-.81.24-.21.54-.33.85-.33s.62.12.85.33c.24.21.38.5.42.81v2.19c0,.34-.13.66-.37.9-.24.24-.56.38-.9.38Z"/></svg>