<?xml version="1.0" encoding="UTF-8"?><svg id="Layer_1" xmlns="http://www.w3.org/2000/svg" viewBox="0 0 195 195"><defs><style>.cls-1{fill:#e21833;fill-rule:evenodd;stroke-width:0px;}</style></defs><path class="cls-1" d="m97.5,7.62c49.4,0,89.49,39.85,89.88,89.16,0,.5,0,1,0,1.5-.2,24.03-9.83,45.8-25.37,61.82-.31.32-.63.65-.95.96s-.64.64-.96.95c-16.03,15.56-37.84,25.19-61.9,25.37-.44,0-.88,0-1.32,0-49.35-.34-89.25-40.45-89.25-89.88,0-49.64,40.24-89.88,89.88-89.88Zm-54.17,8.81C59.37,5.72,78.22,0,97.5,0c25.85.03,50.63,10.31,68.91,28.59,18.28,18.28,28.56,43.06,28.59,68.91,0,19.28-5.72,38.13-16.43,54.17-10.71,16.03-25.94,28.53-43.76,35.91-17.82,7.38-37.42,9.31-56.33,5.55-18.91-3.76-36.29-13.05-49.92-26.68-13.64-13.64-22.92-31.01-26.68-49.92C-1.89,97.61.04,78,7.42,60.19c7.38-17.82,19.88-33.04,35.91-43.76Z"/><path class="cls-1" d="m97,29.65h24v18h-24v-18Zm-3,21v-24h30v24h-27v5.29l26.6,58.42,8.05-17.68,2.2-4.83,2.2,4.83,20.13,44.21,1.82,4H34l1.82-4,20.13-44.21,2.2-4.83,2.2,4.83,7.55,16.58,26.1-57.32v-5.29Zm-35.85,50.86l7.55,16.58-10.38,22.81h-15.1l17.94-39.39Zm93.63,39.39h-16.1l-9.88-21.71,8.05-17.68,17.93,39.39Zm-66.91-55.26l-25.16,55.26h71.57l-25.47-55.94-5.81,5.81-5-5-5,5-5.13-5.13Zm10.63-23.34l8.99,19.74-4.49,4.49-4.94-4.94-.06.06-.06-.06-4.94,4.94-3.8-3.8,9.3-20.43Zm6.76-30.25v12.6h3.24v-7.22l2.61,4.79h1.8l2.61-4.79v7.22h3.24v-12.6h-3.24l-3.46,6.39-3.49-6.39h-3.31Z"/></svg>