<?xml version="1.0" encoding="UTF-8"?><svg id="Layer_1" xmlns="http://www.w3.org/2000/svg" viewBox="0 0 104 112"><defs><style>.cls-1,.cls-2{fill:#e21833;stroke-width:0px;}.cls-2{fill:#e21833;fill-rule:evenodd;}</style></defs><path class="cls-2" d="m28.5,43c11.87,0,21.5-9.63,21.5-21.5S40.37,0,28.5,0,7,9.63,7,21.5s9.63,21.5,21.5,21.5Zm0-4c9.67,0,17.5-7.83,17.5-17.5S38.17,4,28.5,4,11,11.84,11,21.5s7.83,17.5,17.5,17.5Z"/><path class="cls-2" d="m9,48c-1.1,0-2,.9-2,2v36h43v-36c0-1.1-.9-2-2-2H9Zm3.25,3c-1.1,0-2,.9-2,2v30h36.51v-30c0-1.1-.9-2-2-2H12.25Z"/><path class="cls-2" d="m82.5,43c11.87,0,21.5-9.63,21.5-21.5S94.37,0,82.5,0s-21.5,9.63-21.5,21.5,9.63,21.5,21.5,21.5Zm0-4c9.67,0,17.5-7.83,17.5-17.5s-7.83-17.5-17.5-17.5-17.5,7.84-17.5,17.5,7.83,17.5,17.5,17.5Z"/><path class="cls-2" d="m63,48c-1.1,0-2,.9-2,2v36h43v-36c0-1.1-.89-2-2-2h-39Zm3.25,3c-1.1,0-2,.9-2,2v30h36.51v-30c0-1.1-.9-2-2-2h-32.51Z"/><path class="cls-1" d="m0,85c0-1.1.9-2,2-2h53c1.1,0,2,.9,2,2h0c0,1.1-.9,2-2,2H2c-1.1,0-2-.9-2-2h0Z"/><path class="cls-2" d="m92,83h-19v29h19v-29Zm-3,3h-13v23h13v-23Z"/><path class="cls-1" d="m80.53,25.94c0-.53.06-1.06.18-1.58.13-.53.32-1.01.56-1.44.2-.41.42-.73.65-.96.24-.24.51-.48.82-.73.31-.25.68-.6,1.1-1.04.33-.36.54-.71.65-1.06.11-.35.17-.74.17-1.15,0-.22-.02-.42-.07-.62-.04-.2-.12-.38-.24-.53-.19-.26-.45-.45-.77-.56-.31-.12-.65-.18-1.01-.18-.27,0-.54.03-.8.1-.26.06-.48.17-.66.31-.22.17-.39.38-.5.64-.1.26-.15.54-.14.85h-3.46c.1-.86.34-1.64.73-2.35.39-.71.9-1.27,1.52-1.68.46-.3.96-.54,1.51-.7.55-.16,1.1-.24,1.66-.24.91,0,1.77.14,2.58.43.81.28,1.48.74,2,1.39.35.41.62.88.82,1.43.19.54.29,1.08.29,1.62,0,.87-.2,1.66-.59,2.38s-.88,1.38-1.45,1.99c-.25.26-.47.5-.67.7-.19.19-.37.38-.53.55-.15.17-.29.34-.41.53-.22.37-.36.67-.41.9s-.07.57-.07,1.02h-3.46Zm.02,4.68v-3.46h3.43v3.46h-3.43Z"/></svg>