<?xml version="1.0" encoding="UTF-8"?><svg id="Layer_1" xmlns="http://www.w3.org/2000/svg" viewBox="0 0 106.74 75.82"><defs><style>.cls-1{fill:#e21833;fill-rule:evenodd;stroke-width:0px;}</style></defs><path class="cls-1" d="m87.92.58c.78-.78,2.04-.78,2.82,0l15.41,15.39c.78.78.78,2.04,0,2.82-.78.78-2.04.78-2.82,0l-12.01-11.99v46.49c0,1.1-.89,2-1.99,2s-2-.89-2-2V6.81l-12.01,11.99c-.78.78-2.04.78-2.82,0-.78-.78-.78-2.04,0-2.82L87.92.58ZM0,12.26c0-1.1.89-2,2-2h20.55c1.1,0,2,.89,2,2s-.89,2-2,2H2c-1.1,0-2-.89-2-2Zm0,20.52c0-1.1.89-2,2-2h41.1c1.1,0,2,.89,2,2s-.89,1.99-2,1.99H2c-1.1,0-2-.89-2-1.99Zm0,20.52c0-1.1.89-2,2-2h61.65c1.1,0,1.99.89,1.99,2s-.89,2-1.99,2H2c-1.1,0-2-.89-2-2Zm0,20.52c0-1.1.89-2,2-2h82.2c1.1,0,1.99.89,1.99,2s-.89,1.99-1.99,1.99H2c-1.1,0-2-.89-2-1.99Z"/></svg>