<?xml version="1.0" encoding="UTF-8"?><svg id="Layer_1" xmlns="http://www.w3.org/2000/svg" viewBox="0 0 195 195"><defs><style>.cls-1{fill:#e21833;fill-rule:evenodd;stroke-width:0px;}</style></defs><path class="cls-1" d="m97.5,7.62c49.4,0,89.49,39.85,89.88,89.16,0,.5,0,1,0,1.5-.2,24.03-9.83,45.8-25.37,61.82-.31.32-.63.65-.95.96s-.64.64-.96.95c-16.03,15.56-37.84,25.19-61.9,25.37-.44,0-.88,0-1.32,0-49.35-.34-89.25-40.45-89.25-89.88,0-49.64,40.24-89.88,89.88-89.88Zm-54.17,8.81C59.37,5.72,78.22,0,97.5,0c25.85.03,50.63,10.31,68.91,28.59,18.28,18.28,28.56,43.06,28.59,68.91,0,19.28-5.72,38.13-16.43,54.17-10.71,16.03-25.94,28.53-43.76,35.91-17.82,7.38-37.42,9.31-56.33,5.55-18.91-3.76-36.29-13.05-49.92-26.68-13.64-13.64-22.92-31.01-26.68-49.92C-1.89,97.61.04,78,7.42,60.19c7.38-17.82,19.88-33.04,35.91-43.76Z"/><path class="cls-1" d="m97.96,166.65c-2.53,0-8.64-10.84-16.94-11h-41.38c-.9,0-1.63-.73-1.63-1.63v-80.83c0-.9.73-1.63,1.63-1.63h42.93c-4.64-4.48-9.61-5.95-9.61-18.9,0-13.77,11.24-25.01,25.01-25.01s25.01,11.24,25.01,25.01-5.54,15.07-9.69,18.9h43.1c.9,0,1.63.73,1.63,1.63v80.83c0,.9-.73,1.63-1.63,1.63h-41.47c-8.23.16-14.42,11-16.94,11Zm-1.63-67.22c-3.58-.73-5.78-3.83-6.35-6.36h-1.79c-4.64,0-6.19-4.73-4.56-7.82-3.1-.33-27.05-.16-32.1-.16v57.03h29.65c.41,0,7.98.08,15.15,5.3v-47.99Zm-2.93-6.36c1.3,4.24,7.82,4.24,9.21,0h-9.21Zm12.55,0c-.65,3.18-3.18,5.7-6.35,6.36v47.99c7.17-5.21,14.75-5.3,15.15-5.3h29.65v-57.03c-4.64,0-29.57-.16-32.02.16,1.55,3.1,0,7.82-4.56,7.82h-1.87Zm-17.76-10.51h19.63c2.61,0,2.53-3.91,0-3.91-2.77-.08-18.49-.16-20.04,0-2.2.41-2.04,3.91.41,3.91Zm0,3.26c-2.36.08-2.85,3.99,0,3.99h19.63c2.61,0,2.61-3.99,0-3.99h-19.63Zm-5.05-3.91c-.49-2.28.33-4.89,2.61-6.03-.08-.24-.24-.49-.41-.81-.9-.08-2.04-.24-3.26-.24h-40.81v77.57h39.84c7.25.16,12.06,5.87,16.86,10.43,4.81-4.56,9.69-10.27,16.86-10.43h39.92v-77.57c-6.92,0-37.47-.33-44.15.24-.16.24-.24.49-.41.81,2.28,1.06,3.18,3.75,2.61,6.03,2.93-.24,28.19-.08,33.24-.08.9,0,1.63.73,1.63,1.63v60.29c0,.9-.73,1.63-1.63,1.63h-31.28c-.08,0-8.72.08-15.64,6.68-.41.41-1.06.49-1.63.33l-.65-.41c-6.92-6.52-15.56-6.6-15.64-6.6h-31.28c-.9,0-1.63-.73-1.63-1.63v-60.29c0-.9.73-1.63,1.63-1.63h32.18c.41.08.73.08,1.06.08Zm5.95-6.52h17.84c3.83-10.43,12.79-6.84,12.79-22.73,0-11.98-9.78-21.75-21.75-21.75s-21.75,9.78-21.75,21.75c0,9.53,3.01,11.9,6.44,14.67,2.69,2.12,5.13,4.56,6.44,8.07Zm-.57,24.77c-1.06,0-11.73-5.38-28.59-1.63-2.12.41-2.77-2.77-.65-3.18,17.19-3.83,29.41,1.47,29.9,1.71,1.63.65,1.14,3.1-.65,3.1Zm0,11.73c-1.06,0-11.73-5.38-28.59-1.63-2.12.49-2.77-2.69-.65-3.18,17.19-3.83,29.41,1.47,29.9,1.71,1.63.73,1.14,3.1-.65,3.1Zm0,11.73c-1.06,0-11.73-5.3-28.59-1.63-2.12.49-2.77-2.69-.65-3.18,17.19-3.83,29.41,1.47,29.9,1.71,1.63.73,1.14,3.1-.65,3.1Zm0,11.81c-1.06,0-11.73-5.38-28.59-1.63-2.12.41-2.77-2.77-.65-3.26,17.19-3.75,29.41,1.55,29.9,1.71,1.63.73,1.14,3.18-.65,3.18Zm18.9-35.28c-1.71,0-2.28-2.44-.65-3.1.49-.24,12.79-5.54,29.98-1.71,2.12.41,1.38,3.59-.73,3.18-16.13-3.67-27.78,1.38-27.94,1.47-.16.08-.41.16-.65.16Zm0,11.73c-1.71,0-2.28-2.36-.65-3.1.49-.24,12.79-5.54,29.98-1.71,2.12.41,1.38,3.67-.73,3.18-16.78-3.75-27.54,1.63-28.6,1.63Zm0,11.73c-1.71,0-2.28-2.36-.65-3.1.49-.24,12.79-5.54,29.98-1.71,2.12.49,1.38,3.67-.73,3.18-16.13-3.58-27.78,1.47-27.94,1.55-.16.08-.41.08-.65.08Zm0,11.81c-1.71,0-2.28-2.44-.65-3.18.49-.16,12.79-5.54,29.98-1.71,2.12.49,1.38,3.67-.73,3.18-16.13-3.58-27.78,1.47-27.94,1.55-.16.08-.41.16-.65.16Z"/></svg>