<?xml version="1.0" encoding="UTF-8"?><svg id="Layer_1" xmlns="http://www.w3.org/2000/svg" viewBox="0 0 92 125"><defs><style>.cls-1,.cls-2{fill:#e21833;stroke-width:0px;}.cls-2{fill:#e21833;fill-rule:evenodd;}</style></defs><path class="cls-1" d="m86.89,47h-27.26c-2.82,0-5.58.78-7.98,2.24-2.4,1.46-4.36,3.55-5.65,6.05-1.29-2.49-3.24-4.59-5.65-6.05-2.4-1.46-5.17-2.23-7.98-2.24H5.11c-1.36,0-2.66.54-3.61,1.49-.96.95-1.5,2.25-1.5,3.6v54.26c0,1.35.54,2.64,1.5,3.6.96.95,2.26,1.49,3.61,1.49h27.26c3.16,0,6.2,1.25,8.43,3.48,2.24,2.23,3.49,5.24,3.49,8.39,0,.45.18.88.5,1.2s.75.5,1.2.5.89-.18,1.2-.5.5-.75.5-1.2c0-3.15,1.26-6.17,3.49-8.39,2.24-2.23,5.27-3.48,8.43-3.48h27.26c1.36,0,2.66-.54,3.61-1.49.96-.95,1.5-2.25,1.5-3.6v-54.26c0-1.35-.54-2.64-1.5-3.6-.96-.95-2.26-1.49-3.61-1.49Zm-54.52,61.04H5.11c-.45,0-.89-.18-1.2-.5-.32-.32-.5-.75-.5-1.2v-54.26c0-.45.18-.88.5-1.2.32-.32.75-.5,1.2-.5h27.26c3.16,0,6.2,1.25,8.43,3.48,2.24,2.23,3.49,5.25,3.49,8.39v51.46c-1.43-1.77-3.25-3.21-5.31-4.19-2.06-.98-4.32-1.49-6.61-1.49Zm56.22-1.69c0,.45-.18.88-.5,1.2-.32.32-.75.5-1.2.5h-27.26c-2.29,0-4.55.51-6.61,1.5-2.06.98-3.88,2.42-5.31,4.19v-51.47c0-3.15,1.26-6.17,3.49-8.39,2.24-2.23,5.27-3.48,8.43-3.48h27.26c.45,0,.89.18,1.2.5.32.32.5.75.5,1.2v54.26Z"/><path class="cls-2" d="m45.5,43c11.87,0,21.5-9.63,21.5-21.5S57.37,0,45.5,0s-21.5,9.63-21.5,21.5,9.63,21.5,21.5,21.5Zm0-4c9.67,0,17.5-7.83,17.5-17.5s-7.83-17.5-17.5-17.5-17.5,7.84-17.5,17.5,7.83,17.5,17.5,17.5Z"/></svg>