<?xml version="1.0" encoding="UTF-8"?><svg id="Layer_1" xmlns="http://www.w3.org/2000/svg" viewBox="0 0 106.43 109.25"><defs><style>.cls-1{fill:#e21833;fill-rule:evenodd;stroke-width:0px;}</style></defs><path class="cls-1" d="m92.41,81.74c-18.7,18.7-49.02,18.7-67.72,0C5.99,63.04,5.99,32.72,24.69,14.02c18.7-18.7,49.02-18.7,67.72,0,18.7,18.7,18.7,49.02,0,67.72Zm-67.72,0l1.41,1.41L0,109.25l.71-6.35,22.57-22.57,1.41,1.41Zm64.9-2.82c-17.14,17.14-44.93,17.14-62.08,0-17.14-17.14-17.14-44.93,0-62.08C44.65-.3,72.44-.3,89.59,16.85c17.14,17.14,17.14,44.93,0,62.08Z"/></svg>