<?xml version="1.0" encoding="UTF-8"?><svg id="Layer_1" xmlns="http://www.w3.org/2000/svg" viewBox="0 0 120.21 74.89"><defs><style>.cls-1{fill:#e21833;fill-rule:evenodd;stroke-width:0px;}</style></defs><path class="cls-1" d="m1.5,0h117.2c.83,0,1.5.67,1.5,1.5v71.88c0,.83-.67,1.5-1.5,1.5h-17.25c-.1,0-.2-.01-.3-.03H19.05c-.1.02-.2.03-.3.03H1.5c-.83,0-1.5-.67-1.5-1.5V1.5s0,0,1.5,0H0C0,.67.67,0,1.5,0Zm1.5,3.01v14.97h14.24V3.01H3.01Zm17.25,0v68.85h79.7V3.01H20.25Zm82.73,68.88h14.21v-14.97h-14.21v14.97Zm0-17.97h14.21v-14.97h-14.21v14.97Zm0-17.97h14.21v-14.97h-14.21v14.97Zm0-17.97h14.21V3.01h-14.21v14.97ZM17.25,71.88v-14.97H3.01v14.97h14.24ZM3.01,53.91h14.24v-14.97H3.01v14.97Zm0-17.97h14.24v-14.97H3.01v14.97Z"/><path class="cls-1" d="m73.5,36.87l-20.25-11.69v23.38l20.25-11.69Zm3,1.73c1.33-.77,1.33-2.69,0-3.46l-23.25-13.42c-1.33-.77-3,.19-3,1.73v26.85c0,1.54,1.67,2.5,3,1.73l23.25-13.42Z"/></svg>