<?xml version="1.0" encoding="UTF-8"?><svg id="Layer_1" xmlns="http://www.w3.org/2000/svg" viewBox="0 0 100.61 89.46"><defs><style>.cls-1{fill:#e21833;fill-rule:evenodd;stroke-width:0px;}</style></defs><path class="cls-1" d="m5.72,4c-.95,0-1.72.77-1.72,1.72v59.45c0,.95.77,1.72,1.72,1.72h89.18c.95,0,1.72-.77,1.72-1.72V5.72c0-.95-.77-1.72-1.72-1.72H5.72ZM0,5.72C0,2.56,2.56,0,5.72,0h89.18c3.16,0,5.72,2.56,5.72,5.72v59.45c0,3.16-2.56,5.72-5.72,5.72H5.72c-3.16,0-5.72-2.56-5.72-5.72V5.72Z"/><path class="cls-1" d="m43.62,67.03c1.03.41,1.52,1.57,1.11,2.6l-6.33,15.84h23.82l-6.33-15.84c-.41-1.03.09-2.19,1.11-2.6,1.03-.41,2.19.09,2.6,1.11l6.93,17.32h6.08c1.1,0,2,.9,2,2s-.9,2-2,2h-7.38s-.06,0-.09,0h-29.64s-.06,0-.09,0h-7.38c-1.1,0-2-.9-2-2s.9-2,2-2h6.08l6.93-17.32c.41-1.03,1.57-1.52,2.6-1.11Z"/></svg>