<?xml version="1.0" encoding="UTF-8"?><svg id="Layer_1" xmlns="http://www.w3.org/2000/svg" viewBox="0 0 194.87 188.15"><defs><style>.cls-1{fill:#e21833;stroke-width:0px;}</style></defs><path class="cls-1" d="m99.46,124.65c-3.63-1.08-7.3,1.77-10.39-1.52l-21.48,15.46-32.91,23.66c-3.38,2.44-5.83,1.78-7.62-2L.92,103.07c-1.89-4.13-.93-6.25,3.44-7.39l66.7-17.6c.62-.17,1.23-.37,2.06-.62-.29-1.16-.55-2.24-.84-3.31-2.4-9.01-1.69-18.56,2.02-27.11,3.71-8.55,10.2-15.6,18.42-19.99.67-.46,1.47-.7,2.29-.7s1.61.24,2.29.7c13.79,8,20.99,19.94,21.72,35.8,0,.72,0,1.43.14,2.45,4.71-1.22,9.25-2.36,13.71-3.56l50.91-13.47c.37-.17.78-.26,1.19-.26,1.14.27,2.7.3,3.31,1.07.99,1.25.21,2.57-1.08,3.5-4.77,3.4-9.51,6.84-14.27,10.25l-51.8,37.19c-.52.36-.99.79-2.06,1.64,4.22.12,7.72,0,10.66-2.21.52-.43,1.15-.71,1.82-.79.67-.08,1.35.04,1.96.35,6.29,2.42,12.6,4.86,18.94,7.15,1.81.65,2.45,1.36,1.74,3.35-1.52,4.14-2.71,8.35-3.96,12.55-.46,1.52-1.17,2.3-2.93,2.18-2.33-.17-4.68,0-7.22,0,0,1.11-.12,1.98-.12,2.85v28.82c0,2.15-.7,2.83-2.8,2.82-11.73-.08-23.46-.08-35.18,0-2.16,0-2.79-.76-2.77-2.86.09-9.45,0-18.89,0-28.34l.26-2.88Zm-57.56,29.72L186.4,50.57c-.52-.47-.76-.53-.98-.47-21.52,5.68-43.05,11.35-64.58,17.03-.63.09-1.2.4-1.62.87-.42.47-.67,1.07-.71,1.7-.93,6.39-3.36,12.46-7.09,17.73-3.73,5.27-8.66,9.57-14.38,12.57-.63.42-1.38.64-2.13.64s-1.5-.22-2.13-.64c-7.77-4.11-14-10.61-17.76-18.56-.78-1.65-1.52-1.81-3.15-1.39-14.84,3.98-29.69,7.86-44.55,11.79-4.37,1.14-8.73,2.32-13.38,3.55,9.37,19.74,18.57,39.17,27.96,58.97Zm91.51-53.06l-.58.88c-4.75,8.91-12.01,11-20.77,6.09-.4-.16-.83-.22-1.26-.18-.43.03-.85.17-1.22.38-5.61,3.9-11.15,7.91-16.68,11.91-.5.46-.96.97-1.36,1.52l.34.58c2.33-.14,4.66-.17,6.98-.47,2.32-.31,2.82.41,2.79,2.61-.09,9.69,0,19.38-.09,29.05,0,2.16.46,2.96,2.8,2.93,10.26-.12,20.51-.12,30.76,0,2.24,0,2.88-.61,2.85-2.86-.12-9.76,0-19.53,0-29.3,0-1.92.59-2.65,2.51-2.53,2.03.13,4.07.13,6.09,0,.37-.02.72-.13,1.04-.3.32-.18.6-.42.82-.72,1.39-4.07,2.6-8.18,3.96-12.52l-18.98-7.07Zm-92.93,54.6l-.67-.72c-.26-.59-.52-1.19-.81-1.77-8.07-17.03-16.15-34.06-24.22-51.08-.97-2.04-1.52-5.09-3.18-5.79-1.66-.7-4.43.64-6.69,1.22-3.05.79-3.4,1.45-2.03,4.46,4.75,10.4,9.52,20.81,14.29,31.23,3.96,8.63,7.93,17.27,11.9,25.9,1.17,2.54,1.98,2.74,4.27,1.13,1.8-1.26,3.55-2.58,5.36-3.82.58-.31,1.2-.57,1.83-.76h-.05Zm53.26-74.39v-11.06h-7.33c-.67-1.81,0-2.27,1.52-2.21,1.9.08,3.84,0,5.83,0v-3.66h-5.94c-1.65,0-2-.59-1.37-2.27h7.31v-4.98h-7.34c-.23-2.16-.23-2.19,1.42-2.22h5.91v-9.69h-15.23c-.37.09-.71.25-1.01.49-.3.24-.53.54-.7.88-2.48,5.19-3.76,10.87-3.76,16.62s1.29,11.43,3.76,16.62c.17.34.41.64.71.87.3.23.64.4,1.02.48,5.04.17,10.01.12,15.2.12Zm2.51-36.08v9.66h7.13c.59,1.52.33,2.24-1.22,2.21h-5.88v5.1c1.98,0,3.84-.09,5.68,0,.59,0,1.16.67,1.74,1.04-.58.37-1.14,1.01-1.74,1.04-1.89.14-3.81,0-5.64,0v3.84h7.05c.56,1.52.17,2.22-1.34,2.18h-5.82v11.01h15.43c.5,0,1.19-.78,1.52-1.36,2.5-5.18,3.79-10.86,3.79-16.61s-1.3-11.43-3.79-16.61c-.26-.58-.96-1.36-1.52-1.37-5.1-.17-10.21-.14-15.4-.14Zm-17.41-2.41h32.24c-3.69-6.03-8.96-10.93-15.23-14.17-.28-.12-.58-.18-.89-.18s-.61.06-.89.18c-6.28,3.23-11.55,8.13-15.22,14.17Zm.27,40.8c2.27,5.03,10.48,12.83,15.1,14.34.37.09.76.1,1.14.04.38-.07.74-.21,1.07-.42,3.32-2.45,6.69-4.86,9.77-7.62,1.88-1.97,3.6-4.1,5.13-6.35l-32.21.02Zm50.72,19.03c-3.78.31-7.62.82-11.44.81-.99-.02-1.97.19-2.86.6-.9.41-1.69,1.03-2.32,1.79,1.22,1.09,2.68,1.88,4.25,2.32,1.58.44,3.23.5,4.84.2,1.61-.31,3.12-.98,4.43-1.96,1.31-.99,2.37-2.26,3.1-3.72v-.03Z"/><path class="cls-1" d="m188.77,94.11c-.39-8.66-1.84-17.23-4.31-25.53-.24-.69-.44-1.4-.59-2.12-.14-.41-.19-.85-.15-1.28.04-.43.18-.85.39-1.23.22-.38.51-.7.86-.96.35-.25.76-.43,1.18-.51.41-.16.86-.22,1.3-.19.44.03.87.16,1.26.37.39.21.72.51.98.87.26.36.44.77.53,1.2,1.51,5.06,2.72,10.2,3.62,15.4,3.82,28.09-3.05,53.32-21.49,74.98-16.96,19.88-38.73,30.82-64.84,32.74-22.31,1.78-44.5-4.6-62.46-17.96l-1.37-1.02c-2.01-1.62-2.44-3.38-1.2-5.03,1.23-1.65,3.05-1.6,5.18-.3,6.26,3.76,12.29,8.06,18.94,10.98,49.83,21.92,108.85-8.76,119.7-62.1,1.19-6.03,1.66-12.22,2.48-18.33Z"/><path class="cls-1" d="m105.32,6.48c-47.64.11-84.2,31.37-91.04,73.96-.12.73-.12,1.52-.26,2.19-.43,2.3-1.83,3.49-3.82,3.15-.45-.04-.89-.17-1.28-.4-.39-.23-.73-.54-.98-.91-.26-.37-.43-.8-.5-1.24-.07-.45-.04-.9.08-1.34,1.13-5.56,1.86-11.29,3.73-16.61C23.94,29.23,49.12,6.91,86.9,1.23c36.97-5.56,67.17,7.94,90.03,37.57.3.39.58.79.84,1.2.3.34.53.73.67,1.16.14.43.19.88.15,1.33-.04.45-.18.89-.4,1.28-.22.39-.52.74-.88,1.01-1.52,1.28-3.41.88-4.89-.93-2.24-2.77-4.31-5.71-6.73-8.35-17.47-19.09-39.29-28.53-60.37-29.02Z"/><path class="cls-1" d="m78.23,124.34l-9.14,3.75c-2.03-4.72-3.98-9.31-5.94-13.91h-.41v19.27l-15.13-12.61-.44.33c2.16,4.77,4.34,9.52,6.6,14.47l-8.27,4.22-16.53-35.88c2.39-1.22,4.66-2.47,7.04-3.47.4-.06.8-.04,1.19.07.39.11.75.31,1.05.57,4.31,3.58,8.56,7.25,12.83,10.89.72.61,1.52,1.17,2.74,2.22v-5.44c0-4.8-.09-9.61,0-14.41.06-.51.23-1,.49-1.43.26-.44.61-.82,1.03-1.11,2-1.22,4.17-2.12,6.58-3.28l16.32,35.74Zm-46.33-19.21c4.88,10.54,9.72,21.07,14.66,31.78l4.4-2.24-9.83-21.54.38-.24c6.23,5.19,12.46,10.39,18.95,15.83v-26.63l9.84,23.23,5.01-2.1c-4.83-10.66-9.58-21.11-14.3-31.55q-5.21,1.8-5.21,6.82v20.43c-5.65-4.83-10.83-9.23-16-13.71q-3.38-2.89-7.25-.67c-.23.18-.45.38-.65.59Z"/></svg>