<?xml version="1.0" encoding="UTF-8"?><svg id="Layer_1" xmlns="http://www.w3.org/2000/svg" xmlns:xlink="http://www.w3.org/1999/xlink" viewBox="0 0 236.18 195"><defs><style>.cls-1{mask:url(#mask);}.cls-2,.cls-3,.cls-4{fill:#e21833;stroke-width:0px;}.cls-3{fill:#fff;}.cls-4{fill:#e21833;fill-rule:evenodd;}</style><mask id="mask" x="25.59" y="25.59" width="210.59" height="143.81" maskUnits="userSpaceOnUse"><g id="mask0_450_19928"><path class="cls-3" d="m97.5,169.41c39.71,0,71.91-32.19,71.91-71.91S137.21,25.59,97.5,25.59,25.59,57.79,25.59,97.5s32.19,71.91,71.91,71.91Z"/></g></mask></defs><path class="cls-2" d="m97.5,7.62c17.78,0,35.15,5.27,49.94,15.15,14.78,9.88,26.3,23.91,33.1,40.34,6.8,16.42,8.58,34.5,5.12,51.93-3.47,17.43-12.03,33.45-24.6,46.02-12.57,12.57-28.59,21.13-46.02,24.6-17.44,3.47-35.51,1.69-51.93-5.12-16.42-6.8-30.46-18.32-40.34-33.1-9.88-14.78-15.15-32.16-15.15-49.94,0-23.84,9.47-46.7,26.33-63.56C50.8,17.09,73.66,7.62,97.5,7.62Zm0-7.62c-19.28,0-38.13,5.72-54.17,16.43C27.3,27.15,14.8,42.37,7.42,60.19.04,78-1.89,97.61,1.87,116.52c3.76,18.91,13.05,36.29,26.68,49.92,13.64,13.64,31.01,22.92,49.92,26.68,18.91,3.76,38.52,1.83,56.33-5.55,17.82-7.38,33.04-19.88,43.76-35.91,10.71-16.03,16.43-34.89,16.43-54.17-.03-25.85-10.31-50.63-28.59-68.91C148.13,10.31,123.35.03,97.5,0Z"/><g class="cls-1"><path class="cls-2" d="m153.01,63.77c-.3,0-.6-.11-.83-.31-.23-.2-.38-.47-.42-.77-.48-3.01-2.02-5.75-4.34-7.73-2.32-1.98-5.26-3.08-8.31-3.09-.25.02-.51.02-.76,0-.23,0-.46-.07-.66-.19-.2-.12-.36-.29-.47-.5-1-1.94-2.62-3.49-4.59-4.42-1.97-.93-4.2-1.19-6.33-.73-2.13.46-4.06,1.6-5.48,3.26-1.42,1.66-2.25,3.74-2.37,5.92-.02.29-.14.56-.34.78-.2.21-.46.35-.75.4-1.75.26-3.41.98-4.79,2.09-1.38,1.11-2.45,2.56-3.08,4.22-.06.16-.15.3-.26.42-.11.12-.25.22-.4.29-.15.07-.32.11-.48.11-.17,0-.33-.03-.49-.09-.32-.12-.57-.36-.71-.67-.14-.31-.15-.66-.04-.97.74-1.92,1.94-3.62,3.49-4.97,1.55-1.35,3.41-2.29,5.41-2.76.37-2.55,1.51-4.92,3.27-6.79,1.76-1.87,4.06-3.15,6.58-3.67,2.52-.52,5.14-.24,7.5.78,2.36,1.03,4.34,2.76,5.68,4.95,3.68-.04,7.25,1.25,10.05,3.64,2.8,2.39,4.64,5.7,5.19,9.34.04.17.04.35,0,.52-.03.17-.1.33-.2.48-.1.14-.23.26-.38.35-.15.09-.32.15-.49.17l-.21-.06Z"/><path class="cls-2" d="m234.91,158.32H42.46c-.17,0-.34-.02-.51-.08-.16-.06-.31-.15-.43-.27-.12-.12-.22-.26-.29-.42-.07-.16-.1-.33-.1-.5v-79.63c0-.34.13-.66.37-.89.24-.24.56-.37.89-.37h192.52c.33,0,.66.13.89.37.24.24.37.56.37.89v79.63c0,.17-.03.33-.09.49-.06.16-.16.3-.27.42-.12.12-.26.21-.41.28-.15.07-.32.1-.49.1Zm-191.19-2.53h189.91v-77.1H43.72v77.1Z"/><path class="cls-2" d="m57.57,99.45h-7.46c-.34,0-.66-.14-.9-.38-.24-.24-.37-.56-.37-.9v-13.1c0-.34.13-.66.37-.89.24-.24.56-.37.89-.37h7.46c.34,0,.66.13.89.37.24.24.37.56.37.89v13.1c0,.34-.13.66-.37.9-.24.24-.56.38-.89.38Zm-6.19-2.54h4.98v-10.57h-4.98v10.57Z"/><path class="cls-2" d="m73.92,99.45h-10.53c-.34,0-.66-.14-.9-.38-.24-.24-.37-.56-.37-.9v-13.1c0-.34.13-.66.37-.89.24-.24.56-.37.89-.37h10.53c.34,0,.66.13.89.37.24.24.37.56.37.89v13.1c0,.34-.13.66-.37.9-.24.24-.56.38-.9.38Zm-9.25-2.54h7.97v-10.57h-7.97v10.57Z"/><path class="cls-2" d="m90.13,99.45h-10.53c-.34,0-.66-.14-.9-.38-.24-.24-.37-.56-.37-.9v-13.1c0-.34.13-.66.37-.89s.56-.37.89-.37h10.53c.34,0,.66.13.89.37.24.24.37.56.37.89v13.1c0,.34-.13.66-.37.9-.24.24-.56.38-.89.38Zm-9.25-2.54h7.98v-10.57h-7.98v10.57Z"/><path class="cls-2" d="m57.57,134.67h-7.46c-.34,0-.66-.14-.9-.38-.24-.24-.37-.56-.37-.9v-29.25c0-.34.13-.66.37-.89.24-.24.56-.37.89-.37h7.46c.34,0,.66.13.89.37.24.24.37.56.37.89v29.25c0,.34-.13.66-.37.9-.24.24-.56.38-.89.38Zm-6.19-2.54h4.98v-26.72h-4.98v26.72Z"/><path class="cls-2" d="m220.66,78.69H63.25c-.34,0-.66-.14-.9-.38-.24-.24-.38-.56-.38-.9v-9.32c0-.34.14-.66.38-.9.24-.24.56-.38.9-.38h157.4c.34,0,.67.13.9.37.24.24.37.57.37.9v9.32c0,.34-.13.66-.37.9-.24.24-.57.37-.9.37Zm-156.14-2.54h154.86v-6.79H64.52v6.79Z"/><path class="cls-2" d="m227.77,98.89H96.43c-.34,0-.66-.13-.89-.37-.24-.24-.37-.56-.37-.89s.13-.66.37-.89c.24-.24.56-.37.89-.37h131.34c.34,0,.66.13.89.37.24.24.37.56.37.89s-.13.66-.37.89-.56.37-.89.37Z"/><path class="cls-2" d="m189.26,93.69h-45.61c-.34,0-.66-.13-.89-.37-.24-.24-.37-.56-.37-.89s.13-.66.37-.89c.24-.24.56-.37.89-.37h45.61c.33,0,.66.13.89.37.24.24.37.56.37.89s-.13.66-.37.89c-.24.24-.56.37-.89.37Z"/><path class="cls-2" d="m189.26,106.76h-45.61c-.34,0-.66-.14-.9-.38-.24-.24-.38-.56-.38-.9,0-.34.14-.66.38-.9.24-.24.56-.37.9-.37h45.61c.34,0,.66.13.9.37.24.24.38.56.38.9,0,.34-.14.66-.38.9s-.56.38-.9.38Z"/><path class="cls-2" d="m189.26,119.64h-45.61c-.34,0-.66-.13-.89-.37s-.37-.56-.37-.89.13-.66.37-.9c.24-.24.56-.37.89-.37h45.61c.33,0,.66.13.89.37.24.24.37.56.37.9s-.13.66-.37.89-.56.37-.89.37Z"/><path class="cls-2" d="m227.77,86.03H96.43c-.17,0-.33-.03-.48-.1-.15-.06-.29-.16-.41-.27-.12-.12-.21-.26-.27-.41-.06-.15-.1-.32-.1-.48s.03-.33.1-.48c.06-.15.16-.29.27-.41.12-.12.26-.21.41-.27.15-.06.32-.1.48-.1h131.34c.34,0,.66.13.89.37.24.24.37.56.37.89s-.13.66-.37.89c-.24.24-.56.37-.89.37Z"/><path class="cls-2" d="m227.77,111.74H96.43c-.34,0-.66-.13-.89-.37-.24-.24-.37-.56-.37-.89s.13-.66.37-.89c.24-.24.56-.37.89-.37h131.34c.34,0,.66.13.89.37s.37.56.37.89-.13.66-.37.89-.56.37-.89.37Z"/><path class="cls-4" d="m111.13,134.61h-14.7c-.34,0-.66-.14-.9-.38-.24-.24-.37-.56-.37-.9v-55.93c0-.34.13-.66.37-.89.24-.24.56-.37.89-.37h138.48c.33,0,.66.13.89.37.24.24.37.56.37.89v55.93c0,.34-.13.66-.37.9-.24.24-.56.38-.9.38h-104.27c-.24-.8-.58-1.66-1-2.54h103.99v-53.32H97.7v43.33h20.75c-.56.75-1.19,1.61-1.83,2.53h-18.92v7.47h14.43c-.42.89-.76,1.75-1,2.54Zm14.04-10.01h102.6c.17,0,.33-.03.48-.1.15-.06.29-.16.41-.27.12-.12.21-.26.27-.41.06-.15.1-.32.1-.48s-.03-.33-.1-.48c-.06-.15-.16-.29-.27-.41-.12-.12-.26-.21-.41-.27-.15-.06-.32-.1-.48-.1h-104.43c.57.75,1.19,1.61,1.83,2.53Z"/></g><path class="cls-2" d="m86.84,50.01c-.34,0-.66-.13-.89-.37-.24-.24-.37-.56-.37-.89,0-.34.13-.66.37-.9.24-.24.56-.38.89-.38,2.04,0,4.04-.54,5.81-1.57,1.76-1.03,3.22-2.5,4.23-4.28,1.01-1.77,1.53-3.78,1.5-5.82-.02-2.04-.58-4.04-1.63-5.79-1.04-1.75-2.53-3.2-4.32-4.19-1.78-.99-3.8-1.49-5.84-1.45-2.04.04-4.03.62-5.77,1.69-1.74,1.06-3.17,2.57-4.14,4.36-.08.15-.19.27-.32.38-.13.1-.28.18-.44.23-.16.05-.33.06-.49.04-.17-.02-.33-.07-.47-.15-.15-.08-.27-.19-.38-.32-.1-.13-.18-.28-.23-.44-.05-.16-.06-.33-.04-.49.02-.17.07-.33.15-.47,1.19-2.19,2.93-4.02,5.06-5.32,2.13-1.29,4.56-2,7.05-2.05,2.49-.05,4.95.56,7.12,1.77,2.18,1.21,3.99,2.97,5.27,5.11,1.27,2.14,1.96,4.58,1.98,7.07.02,2.49-.61,4.94-1.84,7.11-1.23,2.16-3.01,3.96-5.16,5.22-2.15,1.25-4.6,1.91-7.09,1.91Z"/><path class="cls-2" d="m99.92,57.57h-61.36c-.34,0-.66-.13-.89-.37-.24-.24-.37-.56-.37-.89s.13-.66.37-.89c.24-.24.56-.37.89-.37h61.36c1.67,0,3.27-.66,4.45-1.84,1.18-1.18,1.84-2.78,1.84-4.45s-.66-3.27-1.84-4.45c-1.18-1.18-2.78-1.84-4.45-1.84-.34,0-.66-.14-.9-.38-.24-.24-.37-.56-.37-.9s.13-.66.37-.89c.24-.24.56-.37.89-.37,1.19-.05,2.38.14,3.49.56,1.11.42,2.13,1.06,2.99,1.89.86.82,1.54,1.81,2.01,2.91.47,1.1.71,2.27.71,3.47s-.24,2.37-.71,3.47c-.47,1.1-1.15,2.09-2.01,2.91s-1.88,1.47-2.99,1.89c-1.11.42-2.3.61-3.49.56Z"/><path class="cls-2" d="m72.1,48.67c-2.02,0-3.99-.6-5.67-1.72-1.68-1.12-2.99-2.72-3.76-4.58-.77-1.86-.97-3.92-.58-5.9.39-1.98,1.37-3.8,2.79-5.23,1.43-1.43,3.25-2.4,5.23-2.79,1.98-.39,4.03-.19,5.9.58,1.87.77,3.46,2.08,4.58,3.76,1.12,1.68,1.72,3.65,1.72,5.67,0,2.71-1.08,5.3-2.99,7.21s-4.51,2.99-7.21,2.99Zm0-17.89c-1.51,0-2.98.45-4.23,1.28-1.25.84-2.23,2.03-2.81,3.42-.58,1.39-.73,2.92-.43,4.4s1.02,2.83,2.08,3.9c1.07,1.07,2.42,1.79,3.9,2.08s3.01.14,4.4-.43c1.39-.58,2.58-1.55,3.42-2.81.84-1.25,1.28-2.73,1.28-4.23,0-1-.2-1.99-.58-2.91-.38-.92-.94-1.76-1.65-2.47-.71-.71-1.55-1.27-2.47-1.65-.92-.38-1.91-.58-2.92-.58Z"/><path class="cls-2" d="m60.24,50.76h-16.15c-.18.02-.36,0-.53-.05-.17-.05-.33-.15-.46-.27-.13-.12-.24-.27-.31-.43s-.11-.34-.11-.52.04-.36.11-.52.18-.31.31-.43c.13-.12.29-.21.46-.27s.35-.07.53-.05h16.15c.18-.02.36,0,.53.05.17.06.33.15.46.27.13.12.24.27.31.43.07.16.11.34.11.52s-.04.36-.11.52c-.07.16-.18.31-.31.43-.13.12-.29.21-.46.27-.17.05-.35.07-.53.05Z"/><path class="cls-4" d="m63.72,134.67h-.33c-.34,0-.66-.14-.9-.38-.24-.24-.37-.56-.37-.9v-29.25c0-.34.13-.66.37-.89.24-.24.56-.37.89-.37h10.53c.34,0,.66.13.89.37.24.24.37.56.37.89v16.93c-1.01-1.31-1.69-2.14-1.69-2.14,0,0-.32.39-.85,1.06v-14.59h-7.97v26.72h.04c-.42.89-.76,1.75-.99,2.54Zm19.55,0h6.86c.34,0,.66-.14.9-.38.24-.24.37-.56.37-.9v-29.25c0-.34-.13-.66-.37-.89-.24-.24-.56-.37-.89-.37h-10.53c-.34,0-.66.13-.89.37-.24.24-.37.56-.37.89v21.27c.87,1.28,1.76,2.66,2.54,4.03v-24.04h7.98v26.72h-6.58c.41.89.75,1.75.99,2.54Z"/><path class="cls-2" d="m73.49,148.2c-3.02,0-5.92-1.21-8.05-3.35-2.14-2.14-3.34-5.04-3.34-8.06,0-5.88,9.35-17.37,10.42-18.66.12-.14.27-.25.44-.32.17-.07.35-.11.53-.11s.37.04.53.11c.17.07.32.18.44.32,1.07,1.3,10.44,12.78,10.44,18.66,0,3.03-1.21,5.93-3.35,8.06-2.14,2.14-5.04,3.34-8.06,3.35Zm0-27.24c-3.15,4.02-8.87,12.05-8.87,15.83,0,2.35.93,4.61,2.6,6.27,1.66,1.66,3.92,2.6,6.27,2.6s4.61-.93,6.27-2.6c1.66-1.66,2.6-3.92,2.6-6.27,0-3.78-5.71-11.75-8.87-15.83Z"/><path class="cls-2" d="m73.49,157.75c-.34,0-.66-.13-.89-.37-.24-.24-.37-.56-.37-.89v-23.55c0-.17.03-.33.1-.48.06-.15.16-.29.27-.41.12-.12.26-.21.41-.28.15-.06.32-.1.48-.1s.33.03.48.1c.15.06.29.16.41.28.12.12.21.26.27.41.06.15.1.32.1.48v23.55c0,.33-.13.66-.37.89-.24.24-.56.37-.89.37Z"/><path class="cls-2" d="m120.85,148.2c-3.02,0-5.92-1.21-8.06-3.35-2.14-2.14-3.34-5.04-3.35-8.06,0-5.88,9.35-17.37,10.42-18.66.12-.14.28-.25.44-.32s.35-.11.54-.11.37.04.54.11c.17.07.32.18.44.32,1.07,1.3,10.42,12.78,10.42,18.66,0,3.02-1.21,5.92-3.34,8.06-2.14,2.14-5.03,3.34-8.05,3.35Zm0-27.24c-3.15,4.02-8.87,12.05-8.87,15.83-.05,1.19.14,2.39.57,3.5.42,1.12,1.07,2.14,1.89,3,.83.86,1.82,1.55,2.92,2.02,1.1.47,2.28.71,3.48.71s2.38-.24,3.48-.71c1.1-.47,2.09-1.15,2.92-2.02.83-.86,1.47-1.88,1.89-3,.42-1.12.62-2.31.57-3.5,0-3.78-5.7-11.75-8.85-15.83Z"/><path class="cls-2" d="m120.85,157.75c-.34,0-.66-.13-.9-.37-.24-.24-.38-.56-.38-.89v-23.55c0-.34.14-.66.38-.9.24-.24.56-.38.9-.38.34,0,.66.14.9.38.24.24.37.56.37.9v23.55c0,.33-.13.66-.37.89-.24.24-.56.37-.89.37Z"/><path class="cls-2" d="m126.31,58.85c1.12-2.46,2.92-4.54,5.19-6.01,2.27-1.46,4.92-2.24,7.62-2.24"/><path class="cls-2" d="m126.31,60.11c-.18,0-.35-.03-.52-.11-.31-.14-.54-.4-.66-.72-.12-.32-.11-.67.02-.98,1.23-2.68,3.19-4.95,5.67-6.54,2.48-1.59,5.36-2.44,8.3-2.45.34,0,.66.14.9.38.24.24.37.56.37.9s-.13.66-.37.89c-.24.24-.56.37-.89.37-2.46,0-4.86.71-6.93,2.04s-3.71,3.22-4.73,5.46c-.1.22-.26.41-.47.54-.21.13-.44.2-.69.2Z"/></svg>